<svg style="position: absolute; top: 50%; height:24px; right:6px; margin:-12px 0 0;" width="24" height="1em" fill="none" viewBox="-1 -1 24 24" preserveAspectRatio="xMidYMid meet">
    <path fill="currentColor" fill-rule="evenodd" d="M7.62.83c-.37 0-.7.22-.84.55l-.96 2.2H1.83C.83 3.58 0 4.4 0 5.42v12.83c0 1.01.82 1.83 1.83 1.83h18.34c1 0 1.83-.82 1.83-1.83V5.42c0-1.02-.82-1.84-1.83-1.84h-4l-.95-2.2a.92.92 0 00-.84-.55H7.62zm7.96 11a4.58 4.58 0 11-9.16 0 4.58 4.58 0 019.16 0z" clip-rule="evenodd"></path>
</svg>